
Genre:Crime
Language:English
IMDb:http://www.imdb.com/title/tt1087524/
Source:720p.BluRay.x264-CiNEFiLE


General
Complete name :Once.Fallen.2010.720p.BRRip.H264.Feel-Free
Format : MPEG-4
Format profile : Base Media
Codec ID : mp42
File size : 1.41 GiB
Duration : 1h 32mn
Overall bit rate : 2 177 Kbps
Video #1
Codec ID : avc1
Codec ID/Info : Advanced Video Coding
Duration : 1h 32mn
Bit rate mode : Variable
Bit rate : 1 601 Kbps
Width : 1 280 pixels
Height : 720 pixels
Display aspect ratio : 16:9
Frame rate mode : Constant
Frame rate : 23.976 fps
Resolution : 24 bits
Colorimetry : 4:2:0
Scan type : Progressive
Bits/(Pixel*Frame) : 0.072
Stream size : 1.04 GiB (74%)
Audio #2
ID : 2
Format : AAC
Format/Info : Advanced Audio Codec
Format version : Version 4
Format profile : LC
Format settings, SBR : No
Codec ID : 40
Duration : 1h 32mn
Bit rate mode : Constant
Bit rate : 576 Kbps
Channel(s) : 6 channels
Channel positions : Front: L C R, Rear: L R, LFE
Sampling rate : 48.0 KHz
Resolution : 16 bits
Stream size : 380 MiB (26%)

Plot:
The hardest part about moving on is saying goodbye.


screens
 
http://rapidhdd.com/images/635093vlcsnap-2010-11-17-03h22m37s187.png
 
http://www.rapidhdd.com/images/126255vlcsnap-2010-11-17-03h22m46s21.png 
http://www.rapidhdd.com/images/306303vlcsnap-2010-11-17-03h23m11s25.png 
http://www.rapidhdd.com/images/99897vlcsnap-2010-11-17-03h24m15s160.png 
http://www.rapidhdd.com/images/42680vlcsnap-2010-11-17-03h23m21s119.png